<svg id="Capa_1" data-name="Capa 1" xmlns="http://www.w3.org/2000/svg" viewBox="0 0 300 300"><defs><style>.cls-1{stroke:#211915;stroke-miterlimit:10;stroke-width:2.09px;}</style></defs><title>Icon</title><path class="cls-1" d="M130,144.81c-.72-1.27-1.19-2.1-1.67-2.93C99.48,92.6,130.33,28.29,186.83,20a80.44,80.44,0,0,1,26.45.52c5.53,1,7.48,3.57,7.11,9.25a32.8,32.8,0,0,0,35.74,34.7c5.93-.54,8.77,1.72,9.43,7.69.56,5.13,3.09,8.57,8.08,10.06,3.58,1.06,5.26,3.6,5.68,7.14,5.26,44.32-23.48,83.6-67.09,91.72a15.92,15.92,0,0,0-1.52.56,38.76,38.76,0,0,0,4.64,4.12C223.55,191,230,197.56,232.91,207c3.91,12.84,1.36,25.06-4.45,36.7-2.2,4.42-6.5,6.23-11.37,5.93-11.84-.73-23.22-3.39-33.8-8.9-3.67-1.92-6.84-1.82-10.31.7a31.48,31.48,0,0,1-17.53,5.72c-4.38.18-7.47,1.55-10.07,5.45-6.16,9.24-22.22,10.59-30.35,2.9a8.26,8.26,0,0,0-7.64-2.43c-7.77,1.47-15.41,1.4-22.94-1.47-2.84-1.08-5.46.09-7.72,2.09a86.83,86.83,0,0,1-28.41,16.5c-8,2.88-13,1.36-17.88-5.5-5.93-8.31-10-17.32-10.36-27.74-.36-11.66,5-20.8,12.59-29a11.72,11.72,0,0,0,2.16-3.32c4.24-10.23,9.85-19.5,18.43-26.73a21.56,21.56,0,0,1,3-2.27c14.67-8.52,29.29-17.14,44.09-25.43,7-3.92,14.5-6.57,22.75-6C125.26,144.32,127.38,144.57,130,144.81Zm-2.53-17.93c4.71-2.31,9.13-5,13.9-6.68,6.91-2.49,12.92-.53,17.21,5.42a55.87,55.87,0,0,1,5.26,10c1.34,3,2.1,6.34,3.4,9.41,2.85,6.76,7.89,8,13.53,3.36,1.12-.91,2.13-1.95,3.16-3,2.19-2.16,4.22-4.48,6.54-6.49a19.19,19.19,0,0,1,27.73,2.28c1.45,1.73,2.66,3.66,4.15,5.35,5.15,5.85,12.63,5.76,17.09-.58a49.47,49.47,0,0,0,5.66-11.31c2.09-5.66,3.5-11.57,5.44-17.29a20.27,20.27,0,0,1,8.3-11.06c5.08-3.2,9.18-2.7,13.38,1.56a15.37,15.37,0,0,0,1.28,1c0-6.25,0-12.18,0-18.11,0-2.14-1-3.06-3-3.81-6.37-2.43-10.18-7.1-10.68-14-.2-2.61-1-3.38-3.65-3.17A36.84,36.84,0,0,1,230,62.29c-10.59-8.17-15.81-19-15.15-32.47.1-2,0-3.54-2.5-3.92a80.9,80.9,0,0,0-28.57.29,76.36,76.36,0,0,0-61,78.3A69.38,69.38,0,0,0,127.49,126.88ZM86.22,163.47C91.08,174.17,95.82,184,100,194c7.23,17.28,13.15,35,15.1,53.75a3.11,3.11,0,0,0,.72,1.67c5.45,6,15.35,7.42,21.88,2.55,3.28-2.45,6.53-5.47,6.05-10.57-.61-6.37-1.08-12.79-1.13-19.18-.14-18,2.37-35.66,5.84-53.23.54-2.7.1-4.33-2.08-6.17-3.72-3.12-7-6.79-10.46-10.2a5.9,5.9,0,0,0-2.29-1.72c-8.48-2.05-17-3-25.2,1C100.92,155.53,93.6,159.61,86.22,163.47Zm106.7,12.73c38.14.13,67.18-20.68,77.9-51.49,1.7-4.89.34-8.59-2.2-12.33-1.54-2.28-3.44-2.61-5.9-1.36-3.45,1.75-5.4,4.79-6.62,8.25-1.44,4.08-2.61,8.25-3.81,12.41-1.82,6.36-3.84,12.63-8,17.93-7.35,9.35-19.25,9.36-26.65,0-1.4-1.77-2.53-3.82-4.17-5.32a18,18,0,0,0-6-3.9,12.9,12.9,0,0,0-13.77,3.19c-3.25,3.13-6.22,6.59-9.68,9.46-7.85,6.49-16.85,4.44-21.25-4.75-1.51-3.16-2.47-6.58-3.82-9.83a58.66,58.66,0,0,0-3.86-8.31c-3-4.94-7.39-6.62-12.78-4.58-3.65,1.38-7,3.63-10.42,5.58-1.69,1-1.89,2.17-.86,4C145.82,161.55,168.3,175.14,192.92,176.2ZM82,167.11c-6,3.37-11.64,6.81-17.51,9.73-9.62,4.77-15.86,12.59-20.74,21.79-.75,1.4-1.36,2.86-2.23,4.7,5-.59,9.34.19,12.84,2.85A79.33,79.33,0,0,1,66.66,217.4c6.63,7.72,11,16.88,15.25,26.1.34.76.88,1.74,1.55,2,8.6,3.05,17.34,4,26.55,1.18C106,218.47,94.73,192.72,82,167.11Zm67.15,74.66c8.07-.18,15.21-1.66,21.82-5.85,2.87-1.82,4.43-3.53,5-7,1.87-11.34,4.77-22.43,10.6-32.51,2.94-5.08,6.58-9.53,11.92-12.27A53.93,53.93,0,0,1,203.8,182a104.73,104.73,0,0,1-25.67-2.85,82.37,82.37,0,0,1-24-10.54C149.55,193,146.31,217,149.1,241.77Zm31.48-8.46c2.21,1,4.18,1.89,6.12,2.82a81.1,81.1,0,0,0,29.41,7.69c4.12.29,6.5-1.17,8-5a71.19,71.19,0,0,0,2.79-7.9c5-17.91-.06-31.06-15.67-41.17a9.64,9.64,0,0,0-9.77-.62c-5,2.19-8,6.31-10.58,10.85C185.14,210.33,182.69,221.69,180.58,233.31ZM76.75,246.24c-4.55-9.94-9.49-19.67-16.75-28-3.53-4.06-7.46-7.65-12.82-9.17-3.45-1-7-1-9.72,1.55-5.14,4.84-9.12,10.55-10.94,17.45-2.79,10.61.37,20.17,5.76,29.2,5.79,9.73,7.62,10.21,18.11,5.9C60.11,259.17,68.51,253.15,76.75,246.24Z"/><path class="cls-1" d="M230.2,100.68a31.61,31.61,0,1,1-31.66-31.81A31.59,31.59,0,0,1,230.2,100.68ZM198.48,74.52a26.08,26.08,0,1,0,26.16,25.87A26,26,0,0,0,198.48,74.52Z"/><path class="cls-1" d="M157.41,87.38a4.14,4.14,0,0,1-4,4.21,4.35,4.35,0,0,1-4.46-4.15,4.28,4.28,0,0,1,4.25-4.08A4.19,4.19,0,0,1,157.41,87.38Z"/><path class="cls-1" d="M186.67,61a3.84,3.84,0,0,1-4.12,4,4.11,4.11,0,0,1,.23-8.22A3.83,3.83,0,0,1,186.67,61Z"/><path class="cls-1" d="M244.64,99.53c2.43,0,4,1.59,3.94,4.13a3.87,3.87,0,0,1-4,4.11,4.06,4.06,0,0,1-4-4.19A4,4,0,0,1,244.64,99.53Z"/><path class="cls-1" d="M194.89,45.31A4,4,0,0,1,191,41a4,4,0,1,1,7.93.16A4,4,0,0,1,194.89,45.31Z"/><path class="cls-1" d="M158.06,67.53a4,4,0,0,1-4.12-4.08,4,4,0,1,1,8-.2A4,4,0,0,1,158.06,67.53Z"/><path class="cls-1" d="M156.74,107.45a4,4,0,1,1-8,0,4,4,0,1,1,8,0Z"/><path class="cls-1" d="M235.85,88.84a3.92,3.92,0,0,1-4.13-4,4.06,4.06,0,0,1,3.93-4.23,4.11,4.11,0,0,1,.2,8.22Z"/><path class="cls-1" d="M239.41,138.76a3.91,3.91,0,1,1-7.8.12,3.9,3.9,0,1,1,7.8-.12Z"/><path class="cls-1" d="M181.37,134.66a3.9,3.9,0,1,1-7.8.24,3.91,3.91,0,0,1,3.79-4.33A3.85,3.85,0,0,1,181.37,134.66Z"/><path class="cls-1" d="M216.43,59.05a4,4,0,1,1-7.93.13,4,4,0,1,1,7.93-.13Z"/><path class="cls-1" d="M165.38,43.7a4.12,4.12,0,1,1-4.1,4A3.93,3.93,0,0,1,165.38,43.7Z"/><path class="cls-1" d="M232.84,130.54a3.86,3.86,0,0,1-4-4.11c0-2.42,1.4-4,3.66-4.12a3.72,3.72,0,0,1,4.12,3.91A3.9,3.9,0,0,1,232.84,130.54Z"/><path class="cls-1" d="M140,110.83a3.8,3.8,0,0,1-4,4.1,3.75,3.75,0,0,1-3.84-4,3.92,3.92,0,1,1,7.81-.14Z"/><path class="cls-1" d="M138.83,74.53a3.76,3.76,0,0,1,3.94,4.12,3.9,3.9,0,1,1-7.79.08C134.93,76.21,136.45,74.55,138.83,74.53Z"/><path class="cls-1" d="M252.07,84.8a3.78,3.78,0,0,1,4,4,4,4,0,0,1-3.92,4.22,3.89,3.89,0,0,1-3.88-4C248.2,86.59,249.73,84.85,252.07,84.8Z"/></svg>