<svg id="Capa_1" data-name="Capa 1" xmlns="http://www.w3.org/2000/svg" viewBox="0 0 300 300"><defs><style>.cls-1{fill:#fff;}</style></defs><title>Icon</title><path class="cls-1" d="M147.74,261.69l.06.54c7.59-.8,15.28-1.08,22.76-2.49A111.89,111.89,0,0,0,260,129.22c-13.1-70-87.57-110.2-153.3-82.75-68,28.38-90.39,114.12-45,172.18a111.07,111.07,0,0,0,17.58,17.9c1.86,1.52,3.76,1.43,5-.11s.94-3.4-.85-5l-.51-.42c-31.9-28-44.27-62.88-35.65-104.39,11-53.16,63.28-89,117.21-81.25,22.77,3.26,42.66,12.71,58.91,29,26.64,26.69,36.71,59,29.72,95.94-5.73,30.3-22.62,53.46-48.8,69.6-19.94,12.29-41.83,16.87-65.09,14.61a103.25,103.25,0,0,1-43.93-14.7c-2.33-1.41-4.23-1.06-5.27.82s-.35,3.45,1.93,4.83A112,112,0,0,0,147.74,261.69Z"/><path d="M99.82,79.14l17.7,17.56c8.22-3.85,16.73-7.92,25.32-11.84,8.75-4,5.43-4,14.24,0,7.74,3.53,15.38,7.31,23.15,10.77,2.83,1.26,3.8,3,3.76,6.07-.15,10.35,0,20.69-.1,31a3.28,3.28,0,0,0,2.23,3.6c8.42,3.81,16.74,7.84,25.14,11.67a5,5,0,0,1,3.37,5.21c-.1,11.59,0,23.17-.09,34.75a23.49,23.49,0,0,1-1.06,4.78l7.25,7.17a82.93,82.93,0,0,0,13.1-27.9A86.74,86.74,0,0,0,171.31,65.71c-2.53-.66-5.12-1.13-7.69-1.6-2.83-.52-4.11-1.89-3.68-4.1.4-2,2.06-2.87,4.83-2.41a91.32,91.32,0,0,1,40.46,17c21.21,15.9,33.87,37.07,37.23,63.35,3.22,25.17-3,48.09-18.34,68.43-2,2.71-3.93,2.85-6.32.47Q155.35,144.43,92.92,82c-2.48-2.48-2.31-4.33.53-6.47a91.31,91.31,0,0,1,55.17-19c1.11,0,2.59.06,3.25.73a4,4,0,0,1,1,3.38,4.37,4.37,0,0,1-3,2.29c-3.37.47-6.83.34-10.23.73a84.43,84.43,0,0,0-39.54,15.1A2.06,2.06,0,0,0,99.82,79.14Zm77.52,25.52c-8,3.75-15.56,7.28-23.09,10.9a2.49,2.49,0,0,0-.94,1.89c-.08,4.73-.09,9.47,0,14.2a3.63,3.63,0,0,0,.93,2.28c2.29,2.44,4.74,4.73,7,7.16a1.94,1.94,0,0,0,2.66.43c3.92-1.91,7.87-3.77,11.85-5.55a2.29,2.29,0,0,0,1.57-2.48c-.07-5,0-10.05,0-15.08Zm-50-5.26c.61.38.83.54,1.08.66,6.78,3.19,13.54,6.41,20.37,9.5a3.86,3.86,0,0,0,2.81-.13c6-2.72,12-5.56,18-8.37.95-.45,1.88-.93,3.23-1.6-7.68-3.6-14.9-7-22.13-10.35a2,2,0,0,0-1.45,0C142,92.49,134.84,95.86,127.29,99.4Zm76.22,52.27c-7.63-3.56-14.92-7-22.24-10.38a1.66,1.66,0,0,0-1.22,0c-4.14,1.91-8.26,3.86-12.61,5.91,4.76,4.77,9.31,9.36,13.91,13.89a1.68,1.68,0,0,0,1.5.27C189.63,158.19,196.39,155,203.51,151.67Zm4.41,5.22-20.2,9.46,20.2,20.19Zm-61.26-30.84c0-3-.07-5.68,0-8.34A2.41,2.41,0,0,0,145,115.1c-5.36-2.44-10.68-5-16-7.46a8.7,8.7,0,0,0-1.09-.36C134.07,113.47,140.19,119.57,146.66,126.05Z"/><path d="M56.65,151.33c.13-22.63,6.48-41.46,19.12-58.16,2.12-2.8,3.94-2.93,6.47-.39L207,217.51c2.51,2.5,2.37,4.34-.45,6.48C152.41,264.89,74.59,237,59,170.43A83.93,83.93,0,0,1,57.35,161C56.92,157.22,56.79,153.43,56.65,151.33ZM79.31,99.61C55.74,131.73,57.1,180.73,89.9,212.24s80.71,30.22,110.29,8.06a2.65,2.65,0,0,0-.3-.55c-4.53-4.54-9.09-9.05-13.56-13.64-.92-.94-1.65-.65-2.47-.13-2.2,1.42-4.24,1.14-6.56,0-8.37-4.07-16.86-7.91-25.26-11.93A4.21,4.21,0,0,0,148,194q-13.08,6.27-26.28,12.31a5.35,5.35,0,0,1-3.9.34q-15.21-6.87-30.23-14.16a4.72,4.72,0,0,1-2.12-3.41,99,99,0,0,1-.08-10.48c0-2.23,1.38-3.55,3.33-3.53s3.16,1.3,3.21,3.6.09,4.66,0,7a2.25,2.25,0,0,0,1.57,2.47c6.94,3.19,13.84,6.46,20.77,9.68a13,13,0,0,0,1.56.53,5.34,5.34,0,0,0,.17-.85c0-9.33,0-18.66,0-28a3.07,3.07,0,0,0-1.59-2.14c-6.67-3.23-13.41-6.35-20.13-9.49-.63-.29-1.29-.52-2.28-.92,0,2.71,0,5.09,0,7.46,0,2.53-1.3,4.06-3.3,4s-3.25-1.59-3.27-4.11c0-3.79.08-7.58,0-11.37a4.69,4.69,0,0,1,3.15-4.89c8.34-3.8,16.63-7.72,24.92-11.61.68-.32,1.31-.72,1.79-1Zm43.45,99c7.9-3.7,15.47-7.21,23-10.84a2.53,2.53,0,0,0,.87-2c.08-4-.35-8,.14-12,.68-5.49-1.16-9.49-5.43-12.76a2.29,2.29,0,0,0-2.84-.4c-4.78,2.29-9.63,4.45-14.38,6.81a3,3,0,0,0-1.46,2.21c-.1,9.09-.07,18.18-.06,27.28C122.59,197.38,122.67,197.8,122.76,198.61ZM135.22,155c-4.79-4.76-9.24-9.25-13.81-13.62a2.73,2.73,0,0,0-2.4-.19c-4.45,2-8.84,4.08-13.24,6.15l-9.29,4.38c7.52,3.53,14.74,6.93,22,10.29a2.19,2.19,0,0,0,1.61,0C125,159.75,129.92,157.43,135.22,155ZM177,198.38l.63-.72c-7.82-8.19-16-16-24.39-24.58,0,4.66.06,8.58,0,12.49a2.48,2.48,0,0,0,1.67,2.65c6.93,3.17,13.82,6.43,20.73,9.66C176.08,198.08,176.55,198.22,177,198.38Z"/><path d="M147.74,261.69A112,112,0,0,1,92,245.5c-2.28-1.38-2.93-3-1.93-4.83s2.94-2.23,5.27-.82a103.25,103.25,0,0,0,43.93,14.7c23.26,2.26,45.15-2.32,65.09-14.61,26.18-16.14,43.07-39.3,48.8-69.6,7-37-3.08-69.25-29.72-95.94-16.25-16.28-36.14-25.73-58.91-29C110.59,37.67,58.36,73.5,47.31,126.66,38.69,168.17,51.06,203.09,83,231.05l.51.42c1.79,1.57,2.11,3.44.85,5s-3.16,1.63-5,.11a111.07,111.07,0,0,1-17.58-17.9c-45.37-58.06-22.95-143.8,45-172.18C172.47,19,246.94,59.22,260,129.22a111.89,111.89,0,0,1-89.48,130.52c-7.48,1.41-15.17,1.69-22.76,2.49Z"/></svg>