<svg id="Capa_1" data-name="Capa 1" xmlns="http://www.w3.org/2000/svg" viewBox="0 0 300 300"><defs><style>.cls-1{fill:#fff;}</style></defs><title>Icon</title><path class="cls-1" d="M153,44.72c19.18.56,38.25,5.75,55,17.43,35.69,24.91,51.27,59.36,46.24,102.57-2.67,22.92-12.91,42.61-29.09,59.08-18.07,18.39-40.17,28.5-65.73,31.07a102.52,102.52,0,0,1-45.95-6c-2.64-1-4.34-.38-5.11,1.63s.21,3.55,2.84,4.51a111.32,111.32,0,0,0,61.69,4.63c60.23-12.34,99.44-72.27,86.75-132.42C245.42,60.07,175.12,21.26,110.84,45.07A111.67,111.67,0,0,0,38.84,163c3.67,30.44,17.67,55.3,41.47,74.55,4.79,3.87,10.18,7,15.38,10.35a3.22,3.22,0,0,0,4.76-1c1-1.59.48-3.36-1.25-4.52-.72-.49-1.5-.9-2.26-1.33C56.54,217.88,36,169,47.8,123.94,60.23,76.34,102.72,44,153,44.72Z"/><path d="M153,44.72C102.72,44,60.23,76.34,47.8,123.94,36,169,56.54,217.88,96.94,241.06c.76.43,1.54.84,2.26,1.33,1.73,1.16,2.2,2.93,1.25,4.52a3.22,3.22,0,0,1-4.76,1c-5.2-3.35-10.59-6.48-15.38-10.35-23.8-19.25-37.8-44.11-41.47-74.55a111.67,111.67,0,0,1,72-117.91c64.28-23.81,134.58,15,148.73,82.12,12.69,60.15-26.52,120.08-86.75,132.42A111.32,111.32,0,0,1,111.13,255c-2.63-1-3.61-2.52-2.84-4.51s2.47-2.59,5.11-1.63a102.52,102.52,0,0,0,45.95,6c25.56-2.57,47.66-12.68,65.73-31.07,16.18-16.47,26.42-36.16,29.09-59.08,5-43.21-10.55-77.66-46.24-102.57C191.21,50.47,172.14,45.28,153,44.72Z"/><path d="M244.51,149.89a94.57,94.57,0,0,1-189.14.21c-.13-51.81,42-94.51,93.45-94.61C202.12,55.38,244.35,97.05,244.51,149.89ZM150,62A88,88,0,1,0,238,149.82C238,101.54,198.39,62,150,62Z"/><path d="M164.72,141.65c1.09-2.82,2.1-5.29,3-7.82a2.67,2.67,0,0,0-.4-1.79c-.85-1.61-1.82-3.15-2.71-4.74-1.17-2.12-.85-4,.83-5s3.38-.43,4.78,1.58c.2.28.41.55.75,1,1.4-2.43,2.29-4.58.25-7-1.17-1.39-1.72-3.11-.32-4.78s3-1.37,4.77-.5c1.47-2.24,1.5-6.65,5.71-4.89,3.8,1.58,1.25,4.68.69,7.26a14,14,0,0,1,1.64.68,3.21,3.21,0,0,1,.07,5.59,7.58,7.58,0,0,1-1.6.69c-3.63,1.27-3.63,1.26-4.69,5.3.53-.08,1-.11,1.43-.21,2.18-.5,3.84.31,4.35,2.14s-.36,3.4-2.51,4.18c-1.78.64-3.62,1.12-5.36,1.83a3.24,3.24,0,0,0-1.65,1.48c-1,2.26-1.77,4.6-2.66,6.94,17.09-2.78,26.74-33.87,15.7-51.11-1.82.92-3.67,1.85-5.52,2.81-.64.33-1.23.77-1.89,1.09a3.26,3.26,0,0,1-4.4-1.12,3,3,0,0,1,1-4.37c3.71-2,7.5-3.82,11.37-5.45,2.1-.89,3.57.4,4.57,2.28,7.41,14,8.25,28.29,2,42.89-4.67,10.87-13.6,16.94-24.15,21.06a4.19,4.19,0,0,0-2.76,2.69q-10.6,28.41-21.3,56.79c-.13.34-.26.68-.38,1a3.29,3.29,0,0,1-3.35,2.59c-1.82,0-2.7-1.18-3.24-2.74q-4.6-13.29-9.23-26.59l-26.95-77.7-.16-.4c-.92-2.71-.3-4.61,1.72-5.29s3.53.43,4.45,3q1.71,4.83,3.38,9.68,14.7,42.35,29.39,84.7c.21.61.48,1.19.9,2.21,1.14-3,2.12-5.6,3.1-8.2q7.75-20.62,15.54-41.24a4.42,4.42,0,0,0-.31-4.07c-4.38-8.29-6.86-17.06-5.37-26.49A43.65,43.65,0,0,1,163,103.15c1.35-1.9,3.28-2.35,4.88-1.24s1.75,3,.47,5c-1,1.6-2,3.2-2.94,4.85-5.15,9.23-5.19,18.73-1.42,28.41C164.17,140.57,164.37,140.92,164.72,141.65Z"/></svg>