<?xml version="1.0" encoding="UTF-8"?>
<!DOCTYPE svg PUBLIC "-//W3C//DTD SVG 1.1//EN" "http://www.w3.org/Graphics/SVG/1.1/DTD/svg11.dtd">
<!-- Creator: CorelDRAW X8 -->
<svg xmlns="http://www.w3.org/2000/svg" xml:space="preserve" width="215.9mm" height="279.4mm" version="1.1" style="shape-rendering:geometricPrecision; text-rendering:geometricPrecision; image-rendering:optimizeQuality; fill-rule:evenodd; clip-rule:evenodd"
viewBox="0 0 21590 27940"
 xmlns:xlink="http://www.w3.org/1999/xlink"
 data-name="Capa 1">
 <defs>
  <style type="text/css">
   <![CDATA[
    .str0 {stroke:#FEFEFE;stroke-width:198.27}
    .str1 {stroke:#D2D3D5;stroke-width:198.27}
    .str2 {stroke:#FBEA1C;stroke-width:198.27}
    .str3 {stroke:#FEFEFE;stroke-width:7.62}
    .fil1 {fill:none}
    .fil0 {fill:#FEFEFE}
   ]]>
  </style>
 </defs>
 <g id="Layer_x0020_1">
  <metadata id="CorelCorpID_0Corel-Layer"/>
  <polygon class="fil0 str0" points="9286,11292 11944,11292 10775,13661 12764,13661 8706,18789 10370,14827 8524,14866 "/>
  <line class="fil1 str1" x1="7777" y1="15041" x2="6620" y2= "15041" />
  <line class="fil1 str1" x1="7516" y1="12158" x2="6709" y2= "11292" />
  <line class="fil1 str2" x1="13431" y1="12158" x2="14293" y2= "11292" />
  <line class="fil1 str2" x1="13095" y1="15041" x2="14293" y2= "15041" />
  <line class="fil1 str1" x1="13431" y1="17938" x2="14293" y2= "18789" />
  <line class="fil1 str1" x1="7516" y1="17804" x2="6709" y2= "18610" />
  <path class="fil0 str3" d="M5159 11127c158,137 158,416 -6,638 -141,190 -368,376 -629,210l-787 -500c-187,-118 -193,-432 30,-735 212,-287 512,-371 690,-218l72 63c-93,108 -138,164 -228,278l-63 -50c-75,-59 -193,-40 -278,75 -112,152 -68,238 25,303l709 498c80,55 171,57 257,-60 52,-72 91,-183 -14,-265l-65 -52c81,-103 122,-154 207,-252l80 67z"/>
  <path class="fil0 str3" d="M4366 10037c101,-111 153,-165 259,-270l510 516c120,-119 180,-176 305,-288l-483 -543c108,-98 166,-146 279,-239l1071 1316c-91,74 -136,112 -224,191l-501 -564c-121,108 -180,164 -296,279l530 537c-84,84 -126,128 -208,216l-1242 -1151z"/>
  <path class="fil0 str3" d="M5832 8769c100,-67 150,-100 252,-164 453,373 887,781 1289,1210 -101,54 -150,83 -249,141 -104,-108 -156,-161 -263,-266 -141,86 -210,131 -347,226 54,140 82,210 138,349 -94,67 -141,102 -232,174 -230,-542 -428,-1103 -587,-1670l-1 0zm981 1995l-5 3c79,242 121,362 208,600 104,-72 157,-105 263,-172 -770,-1845 -863,-1932 -1054,-2101l588 1670z"/>
  <path class="fil0 str3" d="M6720 8243c203,-105 306,-153 516,-243 385,-167 636,-66 745,244 64,185 41,341 -115,494 239,239 353,363 568,617 -114,38 -170,58 -282,102 -203,-232 -310,-345 -533,-565 -69,30 -103,45 -171,77l305 657c-104,47 -155,72 -257,124l-776 -1507zm638 531c66,-31 100,-45 167,-74 206,-90 205,-188 144,-345 -60,-157 -136,-235 -368,-134 -66,29 -99,43 -164,72 87,194 132,290 221,481z"/>
  <path class="fil0 str3" d="M8186 8074c-83,-264 165,-485 444,-551 278,-67 599,19 645,291l14 85c-129,21 -195,33 -323,61l-18 -84c-24,-114 -141,-146 -261,-117 -121,28 -210,108 -180,222 93,345 140,518 234,863 31,113 133,142 235,117 103,-24 180,-96 157,-210 -27,-125 -40,-187 -67,-312 -96,20 -144,31 -240,54 -21,-83 -31,-125 -51,-208 222,-54 335,-77 560,-115 36,210 54,316 90,526 46,272 -169,449 -391,502 -222,52 -496,-7 -579,-271 -107,-341 -162,-512 -269,-853z"/>
  <path class="fil0 str3" d="M9513 7374c343,-45 692,-71 1038,-72 0,92 0,137 3,229 -269,3 -404,9 -672,34 18,198 27,297 45,495 220,-20 331,-26 551,-31l5 229c-214,4 -321,10 -535,29 18,199 27,298 46,496 229,-21 344,-27 573,-29 0,97 0,145 3,242 -2,0 -5,0 -7,0 -276,0 -553,20 -826,59 -75,-561 -149,-1122 -224,-1681z"/>
  <path class="fil0 str3" d="M12242 8788c-49,216 -286,340 -533,302 -247,-38 -432,-228 -414,-448 40,-436 79,-872 119,-1308 139,12 208,19 347,37l-169 1279c-15,118 54,184 155,200 101,15 187,-26 208,-144 78,-423 155,-846 233,-1269 138,25 206,39 343,69 -96,429 -193,856 -289,1282z"/>
  <path class="fil0 str3" d="M12852 7586c203,53 305,83 504,150 183,60 306,140 385,265 79,126 72,239 -7,426 -57,136 -111,222 -216,280 -122,69 -272,81 -488,10 -60,-20 -90,-30 -150,-48 -79,252 -119,379 -197,632 -108,-33 -162,-49 -271,-78l440 -1637zm98 863c59,18 88,28 146,47 247,81 288,-23 348,-180 56,-149 102,-276 -153,-360 -67,-22 -101,-33 -169,-54 -69,219 -103,329 -172,549l0 -2z"/>
  <path class="fil0 str3" d="M14756 8342c184,100 274,153 452,265 393,247 405,528 273,706l-36 50c-108,144 -213,149 -370,121 96,133 90,258 -15,400l-57 77c-175,237 -406,263 -722,66 -133,-83 -201,-122 -338,-197l813 -1488zm-49 774c52,30 77,46 127,78 187,117 280,83 368,-45 87,-128 64,-236 -131,-358 -49,-30 -72,-45 -122,-75l-242 400zm-391 648c45,26 67,39 110,67 203,127 283,43 376,-96 94,-138 113,-238 -84,-363l-121 -74 -281 466z"/>
  <path class="fil0 str3" d="M15910 10882c-152,143 -427,115 -621,-65 -166,-154 -309,-387 -116,-629l582 -729c139,-174 432,-159 698,85 250,233 302,540 130,701l-69 66c-97,-103 -146,-154 -246,-252l56 -58c66,-68 62,-187 -39,-280 -132,-122 -219,-86 -294,0l-570 654c-64,72 -77,162 24,255 62,58 166,106 259,10 23,-24 36,-36 58,-60 92,90 136,135 224,230l-76 72z"/>
  <path class="fil0 str3" d="M17063 10194c96,108 144,165 235,280 -150,357 -302,711 -486,1052l3 6 836 -585c90,128 133,194 216,327l-1431 908c-63,-101 -96,-150 -163,-247 191,-328 363,-670 511,-1019l-4 -5 -792 639c-77,-96 -116,-144 -196,-234l1271 -1122z"/>
  <circle class="fil1 str0" cx="17365" cy="13157" r="354"/>
  <circle class="fil1 str0" cx="3923" cy="13157" r="354"/>
  <path class="fil1 str0" d="M17517 14623c0,3819 -3095,6914 -6913,6914 -3819,0 -6914,-3095 -6914,-6914"/>
 </g>
</svg>
