<svg id="Capa_1" data-name="Capa 1" xmlns="http://www.w3.org/2000/svg" viewBox="0 0 300 300"><defs><style>.cls-1{fill:#fff;}</style></defs><title>Icon blanc</title><path class="cls-1" d="M128.92,157.38H102c-3.45,0-6.91,0-10.37,0-3.84-.06-5.4-2.65-3.67-6.1q27.21-54.45,54.41-108.89a4.93,4.93,0,0,1,4.91-3.09q28.53.08,57.06,0c1.86,0,3.43.37,4.41,2.09s.13,3.15-.78,4.59q-20.51,32.4-41,64.8c-.41.64-.8,1.3-1.45,2.35h2.7q19.67,0,39.34,0c1.95,0,3.78.09,4.73,2.19s0,3.7-1.29,5.28Q153.1,189.33,95.2,258.11a13.48,13.48,0,0,1-1,1.14c-1.47,1.48-3.75,1.9-5.11,1-1.59-1.09-2-2.82-1.13-5,2.56-6.18,5.16-12.34,7.75-18.51l32.2-76.81C128.22,159.19,128.49,158.46,128.92,157.38ZM97,150h35.79c4.94,0,6.24,2,4.34,6.5l-31.78,76.05c-.28.67-.54,1.34-.81,2l.39.19,96.33-114.22h-2.89q-19.35,0-38.69,0c-1.9,0-3.6-.31-4.59-2.17s-.07-3.15.85-4.59q20.61-32.31,41.21-64.64c.45-.7.87-1.41,1.51-2.45h-2.5c-15.13,0-30.26,0-45.39,0a3.07,3.07,0,0,0-3.25,2q-24.69,49.54-49.47,99C97.74,148.35,97.46,149,97,150Z"/></svg>