<svg id="Capa_1" data-name="Capa 1" xmlns="http://www.w3.org/2000/svg" viewBox="0 0 300 300"><title>Icon-</title><path d="M194,187.19h39.28c3.2,0,3.89.49,4.91,3.51,1.69,5.07,3.42,10.12,5,15.22a1.91,1.91,0,0,0,2.25,1.59c1.89-.11,3.8-.07,5.7,0,2.37.07,3.65,1.32,3.68,3.69q.07,6.45,0,12.89c0,2.37-1.32,3.6-3.69,3.7-4.17.19-4.16.19-5.6,4q-3.69,9.89-7.41,19.75c-1,2.79-1.76,3.29-4.66,3.29q-85.36,0-170.73,0c-10.27,0-17.53-7.3-17.54-17.6q0-87.15,0-174.32c0-10.45,7.23-17.71,17.63-17.72H176.27c10.42,0,17.67,7.24,17.68,17.67q0,60.86,0,121.71Zm-6.77-.05v-1.86q0-61.26,0-122.53c0-6.59-4.26-10.8-10.88-10.8q-56.62,0-113.24,0c-7,0-11.12,4.14-11.12,11.19V236.8c0,7.17,4.09,11.25,11.27,11.25h96.34c.73,0,1.46-.06,2.41-.1-2.11-5.63-4.11-11-6.13-16.41-1.36-3.65-1.37-3.64-5.36-3.77-2.52-.07-3.82-1.27-3.85-3.74q-.08-6.43,0-12.88c0-2.36,1.33-3.6,3.71-3.66,2-.05,4.09,0,6.13-.05a1.89,1.89,0,0,0,1.45-.78c.74-1.87,1.3-3.81,2-5.94-4.31,0-8.32,0-12.32,0-3.19,0-4.34-1.15-4.35-4.31q0-9.09,0-18.17c0-3.48,1.07-4.57,4.5-4.57h24.51c3.84,0,4.8,1,4.81,4.91v8.56ZM162,227.85c0,.21-.11.37-.07.48,2.33,6.26,4.64,12.53,7.06,18.75a2.2,2.2,0,0,0,1.74.93c20,.05,40,0,60,.08a1.89,1.89,0,0,0,2.06-1.56c1.34-3.71,2.76-7.38,4.13-11.07.93-2.49,1.83-5,2.8-7.61Zm74.58-20.45c-1.44-4.31-2.73-8.39-4.2-12.41a2.46,2.46,0,0,0-1.92-1c-4.37-.09-8.73,0-13.1,0q-23,0-46,0c-.74,0-2,.27-2.12.72-1.52,4.15-2.85,8.36-4.29,12.69Zm-83.08,13.45h94.47v-6.48H153.47Zm8.57-27c.84-2,1.17-4.28,2.49-5.44s3.65-1.21,5.58-1.76v-6.14h-20v13.34Z"/><path d="M210.85,153.38v-32c0-4.36.85-5.22,5.12-5.23,5.91,0,11.82,0,17.73,0,3,0,4.2,1.2,4.2,4.24q0,15.19,0,30.39v2.56c2.15,0,4.17,0,6.18,0a3.5,3.5,0,0,1,3.71,2.2c.64,1.6,0,2.86-1.13,4-6.52,6.51-13,13.05-19.56,19.54-1.89,1.87-3.61,1.84-5.51-.06q-9.81-9.73-19.57-19.54a3.45,3.45,0,0,1,2.5-6.13C206.56,153.4,208.58,153.38,210.85,153.38ZM236,160.27c-4.14-.36-4.86-1.14-4.86-5.22v-32H217.62v2.36q0,15.3,0,30.61c0,2.81-1.13,4-3.89,4.12l-.47,0c3.77,3.77,7.66,7.65,11.42,11.42Z"/><path d="M119.32,133.1H63.56c-3.88,0-4.87-1-4.87-4.85V70.16c0-3.63,1-4.69,4.6-4.69q56.29,0,112.58,0c3.46,0,4.55,1.08,4.55,4.53q0,29.25,0,58.5c0,3.55-1.07,4.6-4.7,4.6Zm54.18-6.86V72.4H65.58v53.84Z"/><path d="M79,139.85c4.22,0,8.44,0,12.66,0,3,0,4.19,1.19,4.2,4.23q0,9.28,0,18.57c0,3-1.19,4.24-4.19,4.25q-12.76,0-25.53,0c-2.88,0-4.08-1.22-4.09-4.13q0-9.39,0-18.78c0-2.9,1.2-4.11,4.08-4.13C70.45,139.84,74.74,139.85,79,139.85Zm10,20.2V146.76H69v13.29Z"/><path d="M119.56,166.91c-4.29,0-8.58,0-12.87,0-2.77,0-4-1.23-4-4q0-9.6,0-19.2c0-2.61,1.28-3.86,3.92-3.87q13,0,26,0c2.64,0,3.91,1.26,3.93,3.87q0,9.71,0,19.41c0,2.47-1.32,3.74-3.82,3.76C128.28,166.94,123.92,166.91,119.56,166.91Zm10-6.87V146.76h-20V160Z"/><path d="M79,200.72c-4.29,0-8.58,0-12.87,0-2.78,0-4-1.23-4-4q0-9.6,0-19.2c0-2.62,1.28-3.87,3.91-3.87q13,0,26,0c2.65,0,3.93,1.25,3.94,3.85q.06,9.71,0,19.41c0,2.48-1.31,3.75-3.8,3.77C87.72,200.75,83.36,200.72,79,200.72Zm-10.06-6.91H89V180.55h-20Z"/><path d="M119.41,200.72c-4.22,0-8.44,0-12.66,0-2.88,0-4.09-1.23-4.09-4.13q0-9.39,0-18.78c0-2.91,1.2-4.13,4.07-4.14q12.87,0,25.74,0c2.75,0,4,1.25,4,4q0,9.5,0,19c0,2.84-1.26,4-4.18,4C128,200.74,123.7,200.72,119.41,200.72Zm-9.85-20.18V193.8h20V180.54Z"/><path d="M78.93,207.48c4.29,0,8.58,0,12.87,0,2.88,0,4.08,1.22,4.09,4.13q0,9.39,0,18.78c0,2.9-1.22,4.12-4.09,4.13q-12.87,0-25.74,0c-2.74,0-4-1.26-4-4q0-9.5,0-19c0-2.77,1.23-4,4-4C70.35,207.46,74.64,207.48,78.93,207.48Zm-10,20.14H89V214.36h-20Z"/><path d="M119.61,207.48h12.66c3,0,4.19,1.2,4.2,4.24q0,9.28,0,18.57c0,3-1.19,4.24-4.2,4.24q-12.77,0-25.53,0c-2.87,0-4.08-1.23-4.08-4.13q0-9.39,0-18.78c0-2.91,1.2-4.12,4.08-4.13C111,207.46,115.32,207.48,119.61,207.48Zm10,6.93H109.53v13.23h20.09Z"/><path d="M159.92,166.91c-4.22,0-8.44,0-12.66,0-2.77,0-4-1.23-4-4,0-6.4,0-12.8,0-19.2,0-2.61,1.27-3.86,3.92-3.87q13,0,26,0c2.63,0,3.91,1.26,3.92,3.87q.06,9.71,0,19.41c0,2.47-1.31,3.74-3.81,3.76C168.78,166.94,164.35,166.91,159.92,166.91Zm10.27-20.18H150.12V160h20.07Z"/><path d="M126.35,116.09h-6.67c0-.6-.12-1.2-.12-1.81q0-9.72,0-19.44c0-7.15,5.08-12.46,11.83-12.46s11.82,5.3,11.84,12.45,0,14.06,0,21.23h-6.71v-9.85H126.35Zm10.09-16.91c0-1.93.09-3.62,0-5.29a5.05,5.05,0,0,0-4.58-4.72A4.85,4.85,0,0,0,126.55,93a40.93,40.93,0,0,0-.06,6.17Z"/><path d="M109.37,95.75v-6.5h-6.56v20h6.55v-6.48h6.78c0,3.49.13,7-.06,10.46a3,3,0,0,1-3.32,2.9c-4.51,0-9,.07-13.51,0a3.2,3.2,0,0,1-3.33-3.37q-.08-13.5,0-27a3.24,3.24,0,0,1,3.53-3.39q6.54-.08,13.08,0a3.32,3.32,0,0,1,3.63,3.52c.07,2.67,0,5.34,0,8v1.82Z"/><path d="M85.74,82.47h6.65c.31,6,.82,12-4.55,16.8,5.3,4.55,4.88,10.6,4.58,16.77H85.74c0-2.22,0-4.44,0-6.67.06-3-2.71-6.78-6.76-6.58v13.29H72.38V82.52H79V95.75a6.54,6.54,0,0,0,6.77-6.5C85.8,87.07,85.74,84.89,85.74,82.47Z"/><path d="M153.27,109.42h13.5v6.75c-5.74,0-11.42.06-17.09,0a2.93,2.93,0,0,1-3-3c-.08-10.18,0-20.36,0-30.66h6.64Z"/></svg>