<svg id="Capa_1" data-name="Capa 1" xmlns="http://www.w3.org/2000/svg" viewBox="0 0 300 300"><defs><style>.cls-1{fill:#fff;}.cls-1,.cls-2{stroke:#211915;stroke-miterlimit:10;stroke-width:1.7px;}</style></defs><title>Icon</title><path class="cls-1" d="M117.56,137.57H232.19c7.18,0,10.87,3.67,10.87,10.83q0,23.16,0,46.32c0,.73-.22,1.62.11,2.16.49.77,1.38,1.77,2.12,1.78s1.6-1,2.18-1.71c.3-.37.11-1.14.12-1.72q0-23.72,0-47.42c0-9.11-5.94-15-15.05-15q-57.9,0-115.79,0c-3.15,0-3.76.61-3.76,3.7q0,20.4,0,40.8c0,.59-.2,1.37.09,1.72.64.76,1.5,1.72,2.33,1.79.65,0,1.56-1,2-1.82.33-.55.12-1.43.12-2.17q0-18.19,0-36.39Z"/><path class="cls-1" d="M56.92,171.31c0-7.94,0-15.88,0-23.82,0-6,3.91-9.9,10-9.92q8.84,0,17.65,0c1.67,0,3.28-.19,3.31-2.28s-1.6-2.31-3.26-2.3c-5.73,0-11.47,0-17.2,0-9.46,0-15.26,5.83-15.26,15.26q0,23.28,0,46.54c0,.66-.23,1.51.1,1.94.63.85,1.57,2,2.39,2s1.63-1.26,2.24-2.12c.29-.39.07-1.14.08-1.73Z"/><path class="cls-2" d="M249.42,225.29a47.51,47.51,0,0,1-10.58,21c-9.46,10.71-21.39,16.44-35.67,16.51q-53.14.24-106.28,0A47.5,47.5,0,0,1,51.07,227.3c-.44-1.61-1.06-2-2.65-2-6.65,0-11.38-4.67-11.3-10.92s4.85-10.6,11.4-10.6H199.34q26.35,0,52.7,0c4.53,0,8,2,9.83,6.2a10.87,10.87,0,0,1-9.59,15.34C251.41,225.33,250.53,225.29,249.42,225.29Zm-194-.14c.25,1,.39,1.71.59,2.39C61.3,245.28,77.73,257.91,96.24,258q53.81.21,107.62,0c18.53-.07,35.06-12.86,40.3-30.69.2-.65.3-1.33.47-2.14ZM150,208.54H49.92c-.88,0-1.77,0-2.65.05A5.79,5.79,0,0,0,42,213.65a5.72,5.72,0,0,0,3.87,6.41,12.58,12.58,0,0,0,3.68.42q100.54,0,201.08,0a20.08,20.08,0,0,0,2.2-.05,5.89,5.89,0,0,0,5.34-6.19c-.12-3.58-2.66-5.71-6.93-5.71Z"/><path class="cls-2" d="M161,93.79l-10.61-3.54L75.11,161.52c5.81,5.81,12.44,7,19.75,4a93.46,93.46,0,0,0,9.29-5c1.79-1,3.46-.84,3.85.71a3.26,3.26,0,0,1-.71,2.85c-5.48,3.78-11.27,6.9-18.09,7.51-8,.7-14-3.15-19.18-8.6-1.35-1.41-.48-2.68.69-3.79q6.26-5.91,12.48-11.85Q139,94.42,194.87,41.44c3.21-3,6.69-5,11.27-4.12,4.34.87,7.34,3.39,8.52,7.67s.39,8.44-3.12,11.47c-5.18,4.46-10.55,8.7-15.85,13Q184,79,172.23,88.5c-1.31,1.06-2.79,1.9-4.12,2.93a5.25,5.25,0,0,0-1.55,1.74c-5.89,12.09-13.62,23-21.84,33.55-1,1.27-2.16,2.19-3.72,1s-1.13-2.62,0-4a190.16,190.16,0,0,0,19.48-28.81C160.67,94.54,160.85,94.14,161,93.79Zm-6.79-7.32c5,3,9.44,2.74,13.71-.66,5.11-4.06,10.17-8.2,15.25-12.3,8.11-6.56,16.19-13.14,24.32-19.66,2.35-1.88,3.45-4.2,2.78-7.15-1.16-5.11-7-6.57-11.09-2.75q-13.49,12.67-26.9,25.41Z"/><path class="cls-2" d="M117.56,137.57v2.82q0,18.2,0,36.39c0,.74.21,1.62-.12,2.17-.46.78-1.37,1.87-2,1.82-.83-.07-1.69-1-2.33-1.79-.29-.35-.09-1.13-.09-1.72q0-20.4,0-40.8c0-3.09.61-3.7,3.76-3.7q57.9,0,115.79,0c9.11,0,15,5.93,15.05,15q0,23.72,0,47.42c0,.58.18,1.35-.12,1.72-.58.73-1.45,1.72-2.18,1.71s-1.63-1-2.12-1.78c-.33-.54-.11-1.43-.11-2.16q0-23.16,0-46.32c0-7.16-3.69-10.83-10.87-10.83H117.56Z"/><path class="cls-2" d="M56.92,171.31v23.6c0,.59.21,1.34-.08,1.73-.61.86-1.48,2.12-2.24,2.12s-1.76-1.17-2.39-2c-.33-.43-.1-1.28-.1-1.94q0-23.27,0-46.54c0-9.43,5.8-15.23,15.26-15.26,5.73,0,11.47,0,17.2,0,1.66,0,3.3.16,3.26,2.3s-1.64,2.28-3.31,2.28q-8.82,0-17.65,0c-6,0-9.92,3.89-10,9.92C56.9,155.43,56.92,163.37,56.92,171.31Z"/></svg>