<svg id="Capa_1" data-name="Capa 1" xmlns="http://www.w3.org/2000/svg" viewBox="0 0 300 300"><defs><style>.cls-1{fill:#fff;}</style></defs><title>Icon blanc</title><path class="cls-1" d="M64.36,225.7c-8.64,8.64-17.25,17.23-25.51,25.48l4.32,4.69,25.66-25.66Z"/><path class="cls-1" d="M38.6,45.16Q51.52,58.08,64.32,70.88l4.58-4.51L43.28,40.77Z"/><path class="cls-1" d="M256.67,40.63,231.24,66.12l4.6,5,25.52-25.54Z"/><path class="cls-1" d="M261.4,255.23l-25.52-25.59-4.65,4.26,25.53,25.54Z"/><path class="cls-1" d="M75.76,146.66H39v7.09H75.76Z"/><path class="cls-1" d="M260.88,146.71h-36.7v7h36.7Z"/><path class="cls-1" d="M140.75,146.53H100.06c-4.89,0-6.11-1.44-5.22-6.27q9-48.57,18-97.15c.54-3,1.69-3.93,4.77-3.93q36,0,72.06,0c4.21,0,5.7,2.46,3.87,6.33q-14.5,30.65-29,61.28c-.36.77-.68,1.57-1.19,2.73h2.78q24.47,0,48.92,0c1.94,0,3.84,0,4.88,2.06s-.2,3.72-1.44,5.29L105.78,258.52c-.54.68-1.08,1.64-1.79,1.84-1.29.36-3,.77-4,.19s-1.41-2.3-1.7-3.6c-.16-.74.41-1.66.73-2.47q20.34-52.56,40.69-105.1C140,148.57,140.31,147.75,140.75,146.53ZM102.6,139.1h42.16c4.68,0,6.08,2,4.41,6.36q-16.95,43.82-33.91,87.64c-.24.62-.47,1.24-.7,1.86l.35.16,94-118.21h-2.93q-23.59,0-47.18,0c-4.65,0-6.13-2.39-4.12-6.64l28.74-60.71c.42-.89.82-1.79,1.29-2.81-.62-.08-.9-.16-1.18-.16q-31.12,0-62.26,0c-1.56,0-1.69.83-1.9,2Q112,88.24,104.61,127.91C103.94,131.54,103.3,135.17,102.6,139.1Z"/><path class="cls-1" d="M64.36,225.7l4.47,4.51L43.17,255.87l-4.32-4.69C47.11,242.93,55.72,234.34,64.36,225.7Z"/><path class="cls-1" d="M38.6,45.16l4.68-4.39L68.9,66.37l-4.58,4.51Q51.51,58.06,38.6,45.16Z"/><path class="cls-1" d="M256.67,40.63l4.69,4.92L235.84,71.09l-4.6-5Z"/><path class="cls-1" d="M261.4,255.23l-4.64,4.21L231.23,233.9l4.65-4.26Z"/><path class="cls-1" d="M75.76,146.66v7.09H39v-7.09Z"/><path class="cls-1" d="M260.88,146.71v7h-36.7v-7Z"/></svg>