<svg id="Capa_1" data-name="Capa 1" xmlns="http://www.w3.org/2000/svg" viewBox="0 0 300 300"><defs><style>.cls-1{fill:#fff;}</style></defs><title>Iconos 2 plantilla</title><path class="cls-1" d="M198,183.38H237.3c3.2,0,3.89.49,4.9,3.51,1.7,5.07,3.43,10.12,5,15.22a1.9,1.9,0,0,0,2.25,1.59c1.89-.1,3.8-.07,5.7,0,2.37.07,3.65,1.32,3.68,3.69q.08,6.45,0,12.89c0,2.37-1.32,3.6-3.69,3.7-4.17.19-4.17.19-5.6,4q-3.71,9.89-7.41,19.75c-1,2.79-1.77,3.29-4.66,3.29q-85.36,0-170.73,0c-10.27,0-17.54-7.3-17.54-17.6q0-87.15,0-174.32c0-10.45,7.23-17.71,17.63-17.72H180.33C190.76,41.38,198,48.61,198,59q0,60.86,0,121.71Zm-6.77,0v-1.86q0-61.26,0-122.53c0-6.59-4.25-10.8-10.87-10.8H67.13c-7,0-11.12,4.14-11.12,11.19V233c0,7.17,4.09,11.25,11.27,11.25h96.34c.73,0,1.46-.06,2.41-.1-2.11-5.63-4.12-11-6.13-16.41-1.36-3.64-1.37-3.64-5.36-3.77-2.52-.07-3.82-1.27-3.85-3.73q-.08-6.45,0-12.89c0-2.36,1.32-3.6,3.71-3.66,2-.05,4.09,0,6.13-.05a1.89,1.89,0,0,0,1.45-.78c.74-1.87,1.3-3.81,2-5.93-4.31,0-8.32,0-12.33,0-3.18,0-4.34-1.15-4.34-4.31q0-9.09,0-18.17c0-3.48,1.07-4.57,4.5-4.57q12.25,0,24.51,0c3.83,0,4.8,1,4.8,4.91,0,2.85,0,5.71,0,8.56ZM166,224c0,.21-.12.37-.07.48,2.33,6.26,4.64,12.53,7.06,18.75a2.2,2.2,0,0,0,1.74.93c20,.05,40,0,60,.08a1.89,1.89,0,0,0,2.06-1.56c1.34-3.71,2.76-7.38,4.13-11.07.93-2.49,1.83-5,2.8-7.61Zm74.58-20.45c-1.44-4.31-2.74-8.39-4.2-12.41a2.46,2.46,0,0,0-1.92-1c-4.37-.09-8.73,0-13.1,0q-23,0-46.05,0c-.73,0-1.95.27-2.11.72-1.52,4.15-2.85,8.36-4.29,12.69ZM157.54,217H252v-6.48H157.54Zm8.57-27c.84-2,1.17-4.28,2.49-5.44s3.65-1.21,5.58-1.76v-6.14h-20v13.34Z"/><path class="cls-1" d="M214.92,149.57v-32c0-4.36.85-5.22,5.12-5.23,5.91,0,11.82,0,17.73,0,3,0,4.2,1.2,4.2,4.24q0,15.19,0,30.39v2.56c2.15,0,4.16,0,6.18,0a3.5,3.5,0,0,1,3.71,2.2c.64,1.6,0,2.86-1.13,4-6.52,6.51-13,13.05-19.56,19.54-1.89,1.87-3.61,1.84-5.51-.06q-9.81-9.73-19.57-19.54c-1.13-1.13-1.72-2.41-1-4a3.44,3.44,0,0,1,3.54-2.13C210.63,149.59,212.65,149.57,214.92,149.57Zm25.15,6.89c-4.14-.36-4.86-1.14-4.86-5.22v-32H221.69v2.36q0,15.3,0,30.61c0,2.81-1.13,4-3.89,4.12l-.47,0,11.42,11.42Z"/><path class="cls-1" d="M123.39,129.29H67.63c-3.88,0-4.87-1-4.87-4.85V66.35c0-3.63,1-4.69,4.6-4.69H179.94c3.46,0,4.55,1.08,4.55,4.53q0,29.25,0,58.5c0,3.55-1.08,4.6-4.7,4.6Zm54.18-6.86V68.59H69.65v53.84Z"/><path class="cls-1" d="M83.1,136c4.22,0,8.44,0,12.66,0,3,0,4.19,1.2,4.2,4.23q0,9.28,0,18.57c0,3-1.19,4.24-4.19,4.25q-12.76,0-25.53,0c-2.88,0-4.08-1.23-4.09-4.14q0-9.39,0-18.77c0-2.91,1.2-4.12,4.08-4.14C74.52,136,78.81,136,83.1,136Zm10,20.2V143h-20v13.29Z"/><path class="cls-1" d="M123.63,163.1c-4.29,0-8.58,0-12.87,0-2.77,0-4-1.23-4-4q0-9.6,0-19.2c0-2.61,1.28-3.86,3.92-3.87q13,0,25.95,0c2.64,0,3.91,1.26,3.93,3.87q0,9.71,0,19.41c0,2.47-1.31,3.74-3.81,3.76C132.35,163.13,128,163.1,123.63,163.1Zm10-6.87V143h-20v13.27Z"/><path class="cls-1" d="M83.06,196.91c-4.29,0-8.58,0-12.87,0-2.78,0-4-1.23-4-4q0-9.6,0-19.2c0-2.61,1.28-3.87,3.91-3.87q13,0,26,0c2.65,0,3.93,1.25,3.94,3.85q.06,9.71,0,19.41c0,2.48-1.31,3.75-3.8,3.77C91.79,196.94,87.42,196.91,83.06,196.91ZM73,190H93V176.74H73Z"/><path class="cls-1" d="M123.48,196.91c-4.22,0-8.44,0-12.66,0-2.88,0-4.09-1.23-4.1-4.13q0-9.39,0-18.78c0-2.91,1.21-4.13,4.08-4.14q12.87,0,25.74,0c2.75,0,4,1.25,4,4q0,9.5,0,19c0,2.84-1.26,4-4.18,4C132.06,196.93,127.77,196.92,123.48,196.91Zm-9.85-20.18V190h20V176.73Z"/><path class="cls-1" d="M83,203.67c4.29,0,8.58,0,12.87,0,2.88,0,4.08,1.22,4.09,4.13q0,9.39,0,18.78c0,2.9-1.22,4.12-4.09,4.13q-12.87,0-25.74,0c-2.74,0-4-1.26-4-4q0-9.49,0-19c0-2.77,1.23-4,4-4C74.42,203.65,78.71,203.67,83,203.67ZM73,223.81H93V210.55H73Z"/><path class="cls-1" d="M123.68,203.67h12.66c3,0,4.19,1.2,4.19,4.24q0,9.28,0,18.57c0,3-1.18,4.24-4.19,4.24q-12.77,0-25.53,0c-2.87,0-4.08-1.23-4.09-4.13q0-9.39,0-18.78c0-2.91,1.21-4.12,4.09-4.13C115.1,203.65,119.39,203.67,123.68,203.67Zm10,6.93H113.6v13.23h20.09Z"/><path class="cls-1" d="M164,163.1c-4.22,0-8.44,0-12.66,0-2.77,0-4-1.23-4-4,0-6.4,0-12.8,0-19.2,0-2.61,1.27-3.86,3.92-3.87q13,0,26,0c2.63,0,3.91,1.26,3.92,3.87q.06,9.71,0,19.41c0,2.47-1.31,3.74-3.82,3.76C172.85,163.13,168.42,163.1,164,163.1Zm10.27-20.18H154.19v13.27h20.07Z"/><path class="cls-1" d="M130.42,112.28h-6.67c0-.6-.12-1.2-.12-1.81q0-9.72,0-19.44c0-7.15,5.07-12.46,11.82-12.46S147.27,83.87,147.3,91s0,14.06,0,21.23h-6.71V102.4H130.42Zm10.09-16.91c0-1.93.09-3.62,0-5.29a5.05,5.05,0,0,0-4.58-4.72,4.85,4.85,0,0,0-5.29,3.84,40.93,40.93,0,0,0-.06,6.17Z"/><path class="cls-1" d="M113.44,91.94v-6.5h-6.56v20h6.55V99h6.78c0,3.49.13,7-.06,10.46a3.05,3.05,0,0,1-3.33,2.9c-4.5,0-9,.07-13.5,0A3.2,3.2,0,0,1,100,109q-.08-13.5,0-27a3.24,3.24,0,0,1,3.53-3.39q6.54-.08,13.08,0a3.32,3.32,0,0,1,3.63,3.52c.07,2.67,0,5.34,0,8v1.82Z"/><path class="cls-1" d="M89.8,78.66h6.66c.31,6,.82,12-4.55,16.8,5.29,4.55,4.87,10.6,4.58,16.77H89.81c0-2.22,0-4.44,0-6.67.06-3-2.72-6.78-6.76-6.58v13.29H76.45V78.71H83V91.94a6.54,6.54,0,0,0,6.77-6.5C89.86,83.26,89.8,81.08,89.8,78.66Z"/><path class="cls-1" d="M157.34,105.61h13.5v6.75c-5.74,0-11.42.06-17.09,0a2.93,2.93,0,0,1-3-3c-.08-10.18,0-20.36,0-30.66h6.64Z"/></svg>