<svg id="Capa_1" data-name="Capa 1" xmlns="http://www.w3.org/2000/svg" viewBox="0 0 300 300"><defs><style>.cls-1{stroke:#211915;stroke-miterlimit:10;}</style></defs><title>Icon-</title><path class="cls-1" d="M189.42,247.45a63.94,63.94,0,0,0,57.68-50,67.88,67.88,0,0,0-1.44-35.39c-5.3-16.51-5.31-33-.85-49.6,1.86-6.93,3.16-14,2.69-21.24-.17-2.51-.77-5-.78-7.52a3,3,0,1,1,6.06,0,56.16,56.16,0,0,1-.18,21.77c-1.36,7-3,13.86-4.22,20.84-1.85,10.7-.52,21.2,2.56,31.55a86.69,86.69,0,0,1,4,26.4,70.36,70.36,0,0,1-60.28,68.91,77.09,77.09,0,0,1-19.2.1,23.72,23.72,0,0,0-6,.5c-17,2.72-32.52-1-46.9-10.14l-1.62-1.05c-1.1,1-2.16,1.9-3.25,2.81-1.88,1.56-3.6,1.59-4.86.12s-1-3.2.87-4.78a42.14,42.14,0,0,0,14.53-23.16c2.47-10.54,1.32-20.93-2-31.07-5.75-17.59-16-32-31.14-42.76a26.43,26.43,0,0,0-9.39-4.21c-4.89-1.06-8.87,1.59-12.16,5a76,76,0,0,0-16.24,25.81c-5,13-7.32,26.41-5.17,40.33,2.3,14.82,9.4,26.46,22.88,33.72,8,4.31,16.45,5,25.22,3a14.73,14.73,0,0,1,1.6-.35,3,3,0,0,1,3.54,2.31c.3,1.81-.44,3.26-2.24,3.57-4.08.69-8.23,1.72-12.31,1.57-19.14-.73-32.1-10.95-40.25-27.65-5.09-10.44-6.06-21.71-5.06-33.18a89.23,89.23,0,0,1,21.09-50.75c3.42-4.08,7.37-7.5,12.63-9a18,18,0,0,1,14.43,1.77c3.6,2,7,4.48,10.43,6.72,10.43-11.89,18.88-25,21.43-41.32,1.31-8.34,2.48-16.74,5.66-24.67a56.31,56.31,0,0,1,16.74-23.13,35.33,35.33,0,0,1,45.1.52c.62.53,1.24,1.06,1.71,1.06,4.54-1.76,8.94-4,13.63-5.19a35,35,0,0,1,39.09,17.86c1.29,2.44,1.05,4.18-.71,5.16s-3.33.28-4.7-2.2c-8.51-15.4-27.27-20.31-41.91-11-.28.18-.55.38-.94.66.27.49.49,1,.78,1.39,7.53,11.22,10.62,23.62,10.16,37.05-.29,8.52-.83,17,.52,25.56a69.93,69.93,0,0,0,6.83,20.69c4.1,8.11,7.63,16.4,9.46,25.4a70.48,70.48,0,0,1-35.46,76C190.89,246.56,190.39,246.88,189.42,247.45Zm-64.36-9.65a8.08,8.08,0,0,0,.7.57c12.84,8.25,26.79,11.74,42,9.43,34.79-5.3,60.62-38.24,53-76.89-1.67-8.47-5.2-16.19-9-23.82-3.64-7.25-6.58-14.81-7.18-22.9-.63-8.49-.74-17-.54-25.55.3-12.31-2.36-23.69-9.34-33.93a29.35,29.35,0,0,0-44.5-5.31,52.4,52.4,0,0,0-12,16.39c-3.56,7.44-4.78,15.48-6,23.49-2.28,14.45-7.46,27.58-16.81,39-2.28,2.78-4.36,5.73-6.28,8.26l14.19,17.62c13.46-23.58,43-27,61.45-14.1A43,43,0,0,1,197,206.93c-10.7,18.36-39.16,29.66-62.86,12A49.67,49.67,0,0,1,125.06,237.8Zm10.49-30.72a7.72,7.72,0,0,1,0,2c-.51,1.87.35,3,1.72,4.14a36.43,36.43,0,1,0-9.2-45,5.72,5.72,0,0,0-.15,5.83A74.58,74.58,0,0,1,135.55,207.08Z"/></svg>