<svg id="Capa_1" data-name="Capa 1" xmlns="http://www.w3.org/2000/svg" viewBox="0 0 300 300"><defs><style>.cls-1{fill:#fff;}</style></defs><title>Icon</title><path class="cls-1" d="M114.92,45.36a16.9,16.9,0,0,0-14,5.85c-1.95,2.16-3.81,4.41-5.59,6.71a17.92,17.92,0,0,1-9.65,6.4c-2.45.69-4.88,1.45-7.3,2.22A17.34,17.34,0,0,0,66.63,78c-.84,2.48-1.62,5-2.3,7.51a18.57,18.57,0,0,1-6.8,10.13,82.74,82.74,0,0,0-7.44,6.42,14.81,14.81,0,0,0-4.63,11,39.87,39.87,0,0,0,.36,6.75c1.11,6.3.38,12.14-3.27,17.55a39.15,39.15,0,0,0-2.77,5.44,16.6,16.6,0,0,0,0,14.57c1.42,3,3,6,4.57,8.93,1.23,2.35,2.87,3.13,4.69,2.27s2.41-2.82,1.19-5.22c-1.38-2.73-2.86-5.4-4.24-8.13a10.8,10.8,0,0,1,0-10.28c1.49-2.91,3-5.8,4.54-8.71a21.77,21.77,0,0,0,2.23-12.5c-.32-3-.52-6-.77-8.92a10.45,10.45,0,0,1,3.89-9.28c1.83-1.56,3.64-3.15,5.56-4.59a24.58,24.58,0,0,0,9.22-13.67c.66-2.46,1.49-4.87,2.28-7.29a10.4,10.4,0,0,1,7-7c2.49-.82,5-1.68,7.49-2.35a23.88,23.88,0,0,0,13.17-8.84c.93-1.21,2-2.33,2.86-3.58,3.45-5,8.13-7.06,14.15-6.05.64.11,1.3.15,2,.26,7.24,1.28,14,.29,20.31-3.76a52.79,52.79,0,0,1,4.82-2.56,11.15,11.15,0,0,1,10.69,0c2.14,1.1,4.28,2.19,6.36,3.38a24,24,0,0,0,15.74,3.21c2.66-.39,5.37-.48,8.05-.68a10.23,10.23,0,0,1,8.91,3.74c1.72,2,3.41,4,5,6.05A23.86,23.86,0,0,0,212,70.44c2.66.75,5.29,1.61,7.92,2.45a10.69,10.69,0,0,1,7.26,7.27c.69,2.14,1.42,4.28,2,6.46A24.93,24.93,0,0,0,238.8,101c1.06.78,2,1.72,3.08,2.45,5.14,3.49,7.06,8.3,6,14.36-.1.58-.14,1.16-.24,1.74-1.27,7.24-.32,14,3.77,20.31,1,1.52,1.71,3.2,2.54,4.82a11.12,11.12,0,0,1,0,10.69c-1.47,2.85-3,5.67-4.45,8.52a21.67,21.67,0,0,0-2.24,12.49c.31,3,.52,6,.77,8.93a10.58,10.58,0,0,1-4,9.43c-1.9,1.59-3.79,3.2-5.74,4.72a24,24,0,0,0-8.76,13c-.72,2.67-1.61,5.29-2.49,7.91a10.15,10.15,0,0,1-6.7,6.68c-2.2.75-4.39,1.55-6.65,2.11A25.11,25.11,0,0,0,199,238.82c-1.12,1.52-2.37,3-3.58,4.41-2.26,2.71-4.86,4.73-8.63,4.92a3.13,3.13,0,0,0-3.15,3.47c.12,1.9,1.58,3.06,3.82,3a15,15,0,0,0,10.69-4.77c2.37-2.46,4.53-5.13,6.68-7.78a17.24,17.24,0,0,1,8.88-6c3.08-.87,6.13-1.84,9.14-2.94a16.42,16.42,0,0,0,10.25-10.34c.9-2.53,1.78-5.09,2.44-7.69a19.2,19.2,0,0,1,7.25-10.84,77.53,77.53,0,0,0,7.25-6.3,14.8,14.8,0,0,0,4.51-10.79,40,40,0,0,0-.36-6.76c-1.09-6.28-.45-12.16,3.26-17.53a37.2,37.2,0,0,0,2.16-4,18.13,18.13,0,0,0,0-17.59,26.41,26.41,0,0,0-1.54-2.88C254,132.42,253,126,254.33,119c1.55-8.4-1-15.37-8.14-20.45-1.54-1.1-2.93-2.4-4.42-3.57a16.14,16.14,0,0,1-5.67-8.35c-.79-2.72-1.66-5.42-2.52-8.12a17.5,17.5,0,0,0-12-12c-2.56-.81-5.12-1.67-7.71-2.38A17.27,17.27,0,0,1,204.82,58c-2.15-2.66-4.32-5.32-6.69-7.78A15,15,0,0,0,187,45.48a40.94,40.94,0,0,0-6.75.38c-6.22,1.09-12,.38-17.34-3.23a40.76,40.76,0,0,0-4.23-2.26,18,18,0,0,0-17.38.07c-2.52,1.31-5,2.65-7.52,4a16.22,16.22,0,0,1-9.93,1.79C120.87,45.86,117.89,45.64,114.92,45.36Z"/><path class="cls-1" d="M52.05,184.06a35.23,35.23,0,0,0,.16-3.7,2.88,2.88,0,0,0-2.74-2.9c-1.74-.22-3.19.51-3.49,2.23-1.17,6.66-1.16,13.17,4.09,18.36a87.71,87.71,0,0,0,7.6,6.55,18.25,18.25,0,0,1,6.59,9.77c.72,2.59,1.5,5.17,2.36,7.71A17.35,17.35,0,0,0,78.3,233.55c2.28.74,4.55,1.53,6.87,2.12a18.45,18.45,0,0,1,10.51,7c1.72,2.25,3.55,4.43,5.47,6.52a16.24,16.24,0,0,0,13.26,5.48,41.1,41.1,0,0,0,5.44-.4c6.2-1.1,12-.45,17.31,3.24.47.33,1,.52,1.53.83,7.62,4.81,15.11,4.55,22.84,0,3.4-2,7.28-3.16,11-4.62,1.73-.68,2.62-1.8,2.42-3.64a3,3,0,0,0-3.58-2.72,39.18,39.18,0,0,0-7.46,2.26c-2.93,1.26-5.69,2.93-8.53,4.39a11.09,11.09,0,0,1-10.69,0c-2.52-1.3-5-2.62-7.52-4A22.83,22.83,0,0,0,123,247.37c-2.81.36-5.65.49-8.48.72a10.34,10.34,0,0,1-9.06-3.89c-1.85-2.15-3.67-4.34-5.44-6.56a23.17,23.17,0,0,0-12-8c-2.17-.63-4.31-1.35-6.49-1.92-5-1.3-8.27-4.42-9.25-9.42-1.91-9.77-7-17.17-15.24-22.72A11,11,0,0,1,52.05,184.06Z"/><path class="cls-1" d="M144.55,236.79c20.8,0,35-3.78,48.32-11.25a85.66,85.66,0,0,0,20.34-16c1.52-1.61,1.65-3.52.39-4.87s-3.27-1.38-4.85.08c-.8.74-1.52,1.58-2.32,2.32C184,228,157.92,234.91,128.21,227.12c-14.27-3.73-26.34-11.4-36.55-22-1.76-1.83-3.74-1.95-5.16-.49s-1.19,3.31.46,5C104.21,227.52,125.31,236.45,144.55,236.79Z"/><path class="cls-1" d="M171.68,129.52l-.5,0q-1.83-9.18-3.65-18.35c-.54-2.74-1.87-4-4-3.61s-3,2-2.5,4.73q2.64,13.5,5.35,27c.77,3.81,1.85,5.13,4.18,5.29s3.68-1.09,4.85-4.9c1.77-5.71,3.55-11.41,5.47-17.57.41,1.13.68,1.8.89,2.48,1.74,5.62,3.46,11.26,5.21,16.88a4.14,4.14,0,0,0,8.09-.38c.22-1,.42-2,.62-3q2.59-13,5.17-26.12c.46-2.37-.46-4-2.42-4.37s-3.4.67-4,3c-.28,1.2-.51,2.42-.75,3.63-1,5.16-2.06,10.31-3.22,16.07-.4-1.15-.6-1.69-.77-2.23-1.83-5.9-3.65-11.81-5.51-17.71-.72-2.28-2.18-3.46-3.93-2.71a5.52,5.52,0,0,0-2.7,3C175.51,116.88,173.64,123.21,171.68,129.52Z"/><path class="cls-1" d="M215.09,93.15a49.21,49.21,0,0,0-3.32-4C190,67.87,164,59.84,134,64.83a4,4,0,0,0-2.69,1.81c-.41.93-.32,2.75.32,3.32a5.28,5.28,0,0,0,3.85,1.13c22.91-3.74,43.81,1,62.51,14.8,3.79,2.79,7.12,6.21,10.61,9.39,1.2,1.1,2.57,1.66,3.95.84C213.5,95.57,214.07,94.39,215.09,93.15Z"/><path class="cls-1" d="M65.48,174.08c.22,7.14,3.33,12.6,9.49,16.18s14.53,3.07,19.27-1.13c1.7-1.5,2-3.28.75-4.8s-3-1.59-4.7-.44c-4.59,3.06-9.83,2.85-13.89-.56a12,12,0,0,1,13-20c.39.19.76.44,1.14.64,2,1.06,3.8.74,4.81-.85s.56-3.57-1.48-4.78c-6.13-3.65-12.47-3.92-18.7-.51S65.71,166.88,65.48,174.08Z"/><path class="cls-1" d="M150,216.76c6.77,0,13.53,0,20.3,0a9.81,9.81,0,0,0,2.6-.24,3,3,0,0,0,2.24-3.31,2.92,2.92,0,0,0-2.51-2.88,9.89,9.89,0,0,0-2-.13H129.36a11.21,11.21,0,0,0-1.74.09,3.21,3.21,0,0,0-.35,6.25,10.63,10.63,0,0,0,2.59.22C136.56,216.77,143.25,216.76,150,216.76Z"/><path class="cls-1" d="M105.5,138.05c0-9.16,0-17.89,0-26.62,0-2.57-1.24-4-3.31-4S99,108.94,99,111.34q0,14.63,0,29.26c0,2.71,1.15,3.92,3.81,4,3.2.09,6.4.08,9.61,0,2.39,0,3.86-1.34,3.89-3.24s-1.49-3.26-4-3.3C110.07,138,107.91,138.05,105.5,138.05Z"/><path class="cls-1" d="M150,90h18.11a9.77,9.77,0,0,0,2.6-.25,3.2,3.2,0,0,0-.27-6.19,9.74,9.74,0,0,0-1.95-.12H131.55a10,10,0,0,0-1.74.1,3.21,3.21,0,0,0-.15,6.29A11.14,11.14,0,0,0,132,90Z"/><path class="cls-1" d="M122.6,72.28c0-2.49-2.29-3.81-4.9-2.76A86.2,86.2,0,0,0,86.76,90.67a4,4,0,0,0-1,1.65,3,3,0,0,0,1.3,3.62c1.59,1,3,.57,4.36-.65,3.56-3.23,6.87-6.83,10.83-9.48,5.59-3.74,11.65-6.79,17.57-10C121.31,75,122.63,74.21,122.6,72.28Z"/><path class="cls-1" d="M138.49,174.33c0-4.87,0-9.75,0-14.62,0-2.73-1.27-4.19-3.4-4.14s-3.15,1.44-3.16,4.11c0,5.09,0,10.19,0,15.28,0,4.65,0,9.31,0,14,0,2.57,1.59,4,3.78,3.65s2.76-1.92,2.77-3.84C138.5,183.93,138.49,179.13,138.49,174.33Z"/><path class="cls-1" d="M184.19,166c-1.18-1.46-2.62-2.2-4.42-1.41s-1.88,2.53-1.88,4.26c0,6.54,0,13.08,0,19.62,0,2.68,1.07,4.06,3.11,4.13s3.41-1.42,3.44-4.09c0-3,.2-6,0-8.93-.32-4.07.8-7,4.81-8.74,1.68-.71,2.07-2.42,1.36-4.11a3,3,0,0,0-3.78-1.79A18.3,18.3,0,0,0,184.19,166Z"/><path class="cls-1" d="M203,179.78c0-3.05,0-6.11,0-9.16,0-2.28-1.21-3.62-3.14-3.68s-3.38,1.35-3.4,3.68q-.06,9.16,0,18.32c0,2.33,1.41,3.75,3.4,3.68s3.12-1.39,3.14-3.67C203,185.89,203,182.84,203,179.78Z"/><path class="cls-1" d="M202.94,158.79a3.18,3.18,0,0,0-3.14-3.23,3.24,3.24,0,1,0,0,6.48A3.2,3.2,0,0,0,202.94,158.79Z"/><path d="M114.92,45.36c3,.28,6,.5,8.91.86a16.22,16.22,0,0,0,9.93-1.79c2.5-1.34,5-2.68,7.52-4a18,18,0,0,1,17.38-.07,40.76,40.76,0,0,1,4.23,2.26c5.33,3.61,11.12,4.32,17.34,3.23a40.94,40.94,0,0,1,6.75-.38,15,15,0,0,1,11.15,4.72c2.37,2.46,4.54,5.12,6.69,7.78a17.27,17.27,0,0,0,9.06,6.13c2.59.71,5.15,1.57,7.71,2.38a17.5,17.5,0,0,1,12,12c.86,2.7,1.73,5.4,2.52,8.12A16.14,16.14,0,0,0,241.77,95c1.49,1.17,2.88,2.47,4.42,3.57,7.11,5.08,9.69,12,8.14,20.45-1.29,7-.34,13.44,3.74,19.36a26.41,26.41,0,0,1,1.54,2.88,18.13,18.13,0,0,1,0,17.59,37.2,37.2,0,0,1-2.16,4c-3.71,5.37-4.35,11.25-3.26,17.53a40,40,0,0,1,.36,6.76,14.8,14.8,0,0,1-4.51,10.79,77.53,77.53,0,0,1-7.25,6.3,19.2,19.2,0,0,0-7.25,10.84c-.66,2.6-1.54,5.16-2.44,7.69a16.42,16.42,0,0,1-10.25,10.34c-3,1.1-6.06,2.07-9.14,2.94a17.24,17.24,0,0,0-8.88,6c-2.15,2.65-4.31,5.32-6.68,7.78a15,15,0,0,1-10.69,4.77c-2.24.07-3.7-1.09-3.82-3a3.13,3.13,0,0,1,3.15-3.47c3.77-.19,6.37-2.21,8.63-4.92,1.21-1.46,2.46-2.89,3.58-4.41a25.11,25.11,0,0,1,14.63-9.66c2.26-.56,4.45-1.36,6.65-2.11a10.15,10.15,0,0,0,6.7-6.68c.88-2.62,1.77-5.24,2.49-7.91a24,24,0,0,1,8.76-13c1.95-1.52,3.84-3.13,5.74-4.72a10.58,10.58,0,0,0,4-9.43c-.25-3-.46-6-.77-8.93a21.67,21.67,0,0,1,2.24-12.49c1.46-2.85,3-5.67,4.45-8.52a11.12,11.12,0,0,0,0-10.69c-.83-1.62-1.56-3.3-2.54-4.82-4.09-6.26-5-13.07-3.77-20.31.1-.58.14-1.16.24-1.74,1-6.06-.89-10.87-6-14.36-1.08-.73-2-1.67-3.08-2.45a24.93,24.93,0,0,1-9.62-14.41c-.56-2.18-1.29-4.32-2-6.46a10.69,10.69,0,0,0-7.26-7.27c-2.63-.84-5.26-1.7-7.92-2.45a23.86,23.86,0,0,1-12.56-8.63c-1.61-2.06-3.3-4.07-5-6.05A10.23,10.23,0,0,0,185.53,52c-2.68.2-5.39.29-8.05.68a24,24,0,0,1-15.74-3.21c-2.08-1.19-4.22-2.28-6.36-3.38a11.15,11.15,0,0,0-10.69,0,52.79,52.79,0,0,0-4.82,2.56c-6.27,4.05-13.07,5-20.31,3.76-.65-.11-1.31-.15-2-.26-6-1-10.7,1-14.15,6.05-.86,1.25-1.93,2.37-2.86,3.58a23.88,23.88,0,0,1-13.17,8.84c-2.53.67-5,1.53-7.49,2.35a10.4,10.4,0,0,0-7,7c-.79,2.42-1.62,4.83-2.28,7.29a24.58,24.58,0,0,1-9.22,13.67c-1.92,1.44-3.73,3-5.56,4.59A10.45,10.45,0,0,0,52,114.76c.25,3,.45,5.95.77,8.92a21.77,21.77,0,0,1-2.23,12.5c-1.5,2.91-3,5.8-4.54,8.71a10.8,10.8,0,0,0,0,10.28c1.38,2.73,2.86,5.4,4.24,8.13,1.22,2.4.75,4.31-1.19,5.22s-3.46.08-4.69-2.27c-1.54-3-3.15-5.91-4.57-8.93a16.6,16.6,0,0,1,0-14.57,39.15,39.15,0,0,1,2.77-5.44c3.65-5.41,4.38-11.25,3.27-17.55a39.87,39.87,0,0,1-.36-6.75,14.81,14.81,0,0,1,4.63-11,82.74,82.74,0,0,1,7.44-6.42,18.57,18.57,0,0,0,6.8-10.13c.68-2.53,1.46-5,2.3-7.51A17.34,17.34,0,0,1,78.34,66.54c2.42-.77,4.85-1.53,7.3-2.22a17.92,17.92,0,0,0,9.65-6.4c1.78-2.3,3.64-4.55,5.59-6.71A16.9,16.9,0,0,1,114.92,45.36Z"/><path d="M52.05,184.06a11,11,0,0,0,5,11.55c8.2,5.55,13.33,12.95,15.24,22.72,1,5,4.28,8.12,9.25,9.42,2.18.57,4.32,1.29,6.49,1.92a23.17,23.17,0,0,1,12,8c1.77,2.22,3.59,4.41,5.44,6.56a10.34,10.34,0,0,0,9.06,3.89c2.83-.23,5.67-.36,8.48-.72A22.83,22.83,0,0,1,137.14,250c2.5,1.35,5,2.67,7.52,4a11.09,11.09,0,0,0,10.69,0c2.84-1.46,5.6-3.13,8.53-4.39a39.18,39.18,0,0,1,7.46-2.26,3,3,0,0,1,3.58,2.72c.2,1.84-.69,3-2.42,3.64-3.69,1.46-7.57,2.64-11,4.62-7.73,4.53-15.22,4.79-22.84,0-.49-.31-1.06-.5-1.53-.83-5.29-3.69-11.11-4.34-17.31-3.24a41.1,41.1,0,0,1-5.44.4,16.24,16.24,0,0,1-13.26-5.48c-1.92-2.09-3.75-4.27-5.47-6.52a18.45,18.45,0,0,0-10.51-7c-2.32-.59-4.59-1.38-6.87-2.12a17.35,17.35,0,0,1-11.68-11.47c-.86-2.54-1.64-5.12-2.36-7.71a18.25,18.25,0,0,0-6.59-9.77,87.71,87.71,0,0,1-7.6-6.55c-5.25-5.19-5.26-11.7-4.09-18.36.3-1.72,1.75-2.45,3.49-2.23a2.88,2.88,0,0,1,2.74,2.9A35.23,35.23,0,0,1,52.05,184.06Z"/><path d="M144.55,236.79c-19.24-.34-40.34-9.27-57.59-27.16-1.65-1.71-1.81-3.63-.46-5s3.4-1.34,5.16.49c10.21,10.62,22.28,18.29,36.55,22,29.71,7.79,55.8.85,78.22-20.06.8-.74,1.52-1.58,2.32-2.32,1.58-1.46,3.55-1.48,4.85-.08s1.13,3.26-.39,4.87a85.66,85.66,0,0,1-20.34,16C179.6,233,165.35,236.82,144.55,236.79Z"/><path d="M171.68,129.52c2-6.31,3.83-12.64,5.94-18.89a5.52,5.52,0,0,1,2.7-3c1.75-.75,3.21.43,3.93,2.71,1.86,5.9,3.68,11.81,5.51,17.71.17.54.37,1.08.77,2.23,1.16-5.76,2.18-10.91,3.22-16.07.24-1.21.47-2.43.75-3.63.56-2.38,2-3.44,4-3s2.88,2,2.42,4.37Q198.32,125,195.71,138c-.2,1-.4,2-.62,3a4.14,4.14,0,0,1-8.09.38c-1.75-5.62-3.47-11.26-5.21-16.88-.21-.68-.48-1.35-.89-2.48-1.92,6.16-3.7,11.86-5.47,17.57-1.17,3.81-2.41,5.06-4.85,4.9s-3.41-1.48-4.18-5.29q-2.7-13.49-5.35-27c-.53-2.68.41-4.39,2.5-4.73s3.44.87,4,3.61q1.83,9.18,3.65,18.35Z"/><path d="M118.49,126.08a18.57,18.57,0,1,1,18.67,18.48A18.48,18.48,0,0,1,118.49,126.08Zm6.56-.09a11.91,11.91,0,0,0,11.85,12,12,12,0,1,0,0-23.95A11.91,11.91,0,0,0,125.05,126Z"/><path d="M215.09,93.15c-1,1.24-1.59,2.42-2.52,3-1.38.82-2.75.26-3.95-.84-3.49-3.18-6.82-6.6-10.61-9.39-18.7-13.77-39.6-18.54-62.51-14.8A5.28,5.28,0,0,1,131.65,70c-.64-.57-.73-2.39-.32-3.32A4,4,0,0,1,134,64.83c30-5,56,3,77.75,24.31A49.21,49.21,0,0,1,215.09,93.15Z"/><path d="M215.73,182a6.18,6.18,0,0,0,5.29,4c2,.18,4.07.13,6.11.2,2.3.08,3.67,1.22,3.76,3.1s-1.33,3.36-3.67,3.43a58.1,58.1,0,0,1-6.33-.13A13,13,0,0,1,208.83,182c-1.83-8,2-15.17,9.15-17.23A13.11,13.11,0,0,1,234.5,179c-.28,2.1-1.61,3-3.63,3-4.22,0-8.44,0-12.66,0Zm11.7-6.69a5.94,5.94,0,0,0-6.65-4.37,5.27,5.27,0,0,0-5,4.37Z"/><path d="M65.48,174.08c.23-7.2,3.37-12.77,9.7-16.23s12.57-3.14,18.7.51c2,1.21,2.55,3.09,1.48,4.78s-2.82,1.91-4.81.85c-.38-.2-.75-.45-1.14-.64a12,12,0,0,0-13,20c4.06,3.41,9.3,3.62,13.89.56,1.73-1.15,3.55-1,4.7.44s1,3.3-.75,4.8c-4.74,4.2-13,4.76-19.27,1.13S65.7,181.22,65.48,174.08Z"/><path d="M119.5,167.06c.8-2,2.08-3.16,4.24-2.61s2.42,2.24,2.41,4.11q0,9.83,0,19.66c0,1.93-.2,3.73-2.46,4.29s-3.4-.72-4.18-2.53c-7.71,2.52-13.3,1.11-17-4.24a12.89,12.89,0,0,1,.56-15.28C107,165.61,112.72,164.38,119.5,167.06Zm0,11.48a6.25,6.25,0,0,0-6.29-6.39,6.34,6.34,0,0,0-.14,12.67A6.32,6.32,0,0,0,119.54,178.54Z"/><path d="M143.84,178.4a14.2,14.2,0,1,1,14,14.25A14.12,14.12,0,0,1,143.84,178.4ZM158,170.87a7.61,7.61,0,0,0,0,15.21,7.61,7.61,0,1,0,0-15.21Z"/><path d="M150,216.76c-6.7,0-13.39,0-20.09,0a10.63,10.63,0,0,1-2.59-.22,3.21,3.21,0,0,1,.35-6.25,11.21,11.21,0,0,1,1.74-.09h41.26a9.89,9.89,0,0,1,2,.13,2.92,2.92,0,0,1,2.51,2.88,3,3,0,0,1-2.24,3.31,9.81,9.81,0,0,1-2.6.24C163.48,216.77,156.72,216.76,150,216.76Z"/><path d="M105.5,138.05c2.41,0,4.57,0,6.74,0,2.53,0,4.05,1.31,4,3.3s-1.5,3.2-3.89,3.24c-3.21.07-6.41.08-9.61,0-2.66-.07-3.81-1.28-3.81-4q0-14.62,0-29.26c0-2.4,1.27-3.83,3.24-3.86s3.3,1.38,3.31,4C105.51,120.16,105.5,128.89,105.5,138.05Z"/><path d="M150,90H132a11.14,11.14,0,0,1-2.38-.18,3.21,3.21,0,0,1,.15-6.29,10,10,0,0,1,1.74-.1h36.89a9.74,9.74,0,0,1,1.95.12,3.2,3.2,0,0,1,.27,6.19,9.77,9.77,0,0,1-2.6.25Z"/><path d="M122.6,72.28c0,1.93-1.29,2.67-2.78,3.49-5.92,3.25-12,6.3-17.57,10-4,2.65-7.27,6.25-10.83,9.48-1.35,1.22-2.77,1.62-4.36.65a3,3,0,0,1-1.3-3.62,4,4,0,0,1,1-1.65A86.2,86.2,0,0,1,117.7,69.52C120.31,68.47,122.55,69.79,122.6,72.28Z"/><path d="M224.75,135.81a9.81,9.81,0,1,1,.07-19.61,9.81,9.81,0,0,1-.07,19.61Zm0-6.59a3.21,3.21,0,0,0,.16-6.42,3.21,3.21,0,1,0-.16,6.42Z"/><path d="M65.52,125.81a9.72,9.72,0,0,1,10-9.6,9.8,9.8,0,0,1-.38,19.6A9.74,9.74,0,0,1,65.52,125.81Zm13,.29a3.21,3.21,0,0,0-3.09-3.3,3.21,3.21,0,1,0-.19,6.41A3.21,3.21,0,0,0,78.56,126.1Z"/><path d="M138.49,174.33c0,4.8,0,9.6,0,14.4,0,1.92-.64,3.47-2.77,3.84s-3.74-1.08-3.78-3.65c-.05-4.65,0-9.31,0-14,0-5.09,0-10.19,0-15.28,0-2.67,1.12-4.05,3.16-4.11s3.38,1.41,3.4,4.14C138.52,164.58,138.49,169.46,138.49,174.33Z"/><path d="M184.19,166a18.3,18.3,0,0,1,2.63-1.06,3,3,0,0,1,3.78,1.79c.71,1.69.32,3.4-1.36,4.11-4,1.69-5.13,4.67-4.81,8.74.23,3,.07,6,0,8.93,0,2.67-1.32,4.17-3.44,4.09s-3.11-1.45-3.11-4.13c0-6.54,0-13.08,0-19.62,0-1.73,0-3.45,1.88-4.26S183,164.56,184.19,166Z"/><path d="M203,179.78c0,3.06,0,6.11,0,9.17,0,2.28-1.21,3.62-3.14,3.67s-3.38-1.35-3.4-3.68q-.06-9.15,0-18.32c0-2.33,1.4-3.74,3.4-3.68s3.12,1.4,3.14,3.68C203,173.67,203,176.73,203,179.78Z"/><path d="M202.94,158.79a3.2,3.2,0,0,1-3.13,3.25,3.24,3.24,0,1,1,0-6.48A3.18,3.18,0,0,1,202.94,158.79Z"/></svg>