<svg id="Capa_1" data-name="Capa 1" xmlns="http://www.w3.org/2000/svg" viewBox="0 0 300 300"><defs><style>.cls-1{stroke:#211915;stroke-miterlimit:10;stroke-width:1.77px;}</style></defs><title>Icon-</title><path class="cls-1" d="M92.15,255.38H84c-3.12,0-3.69-.59-3.71-3.78,0-2.65,0-5.29,0-8.1-3.13,0-5.94,0-8.75,0-2.12,0-3.08-.94-3.06-3,0-2.81,0-5.63,0-8.83h-6c-5.85,0-5.85,0-5.85-5.94v-5.88h-8c-3.37,0-3.84-.48-3.85-3.83v-8c-2.92,0-5.58.16-8.21-.07-1.2-.11-3-.74-3.31-1.59s.6-2.43,1.32-3.44c.88-1.22,2.22-2.1,3.19-3.26,5.94-7.15,13.49-11.93,22-15.43a15.3,15.3,0,0,0,4.52-3q6.29-5.83,12.34-11.91,49.88-49.87,99.76-99.75c4-4,7.54-8.21,9.61-13.46a43.29,43.29,0,0,1,12.14-16.85c1.66-1.46,3.15-3.11,4.7-4.68,1-1,2.17-2.26,3.49-1.26a5.27,5.27,0,0,1,1.51,3.44c.22,2.57.06,5.16.06,8.13,2.87,0,5.58,0,8.28,0,2.91,0,3.51.59,3.54,3.46s0,5.45,0,8.41c3.09,0,5.89,0,8.69,0,2.46,0,3.11.66,3.14,3.13,0,2.8,0,5.61,0,8.72,3,0,5.67,0,8.38,0,2.89,0,3.43.57,3.45,3.52,0,2.65,0,5.31,0,8.3,2.9,0,5.62,0,8.34,0,2.92,0,3.5.6,3.52,3.47,0,2.65,0,5.31,0,8.31,2.82,0,5.47-.16,8.09.07,1.19.11,2.94.72,3.3,1.59s-.54,2.43-1.27,3.41c-1,1.4-2.55,2.43-3.65,3.78-5.79,7.11-13.47,11.39-21.65,15.15-2.93,1.35-5.46,3.84-7.81,6.17Q181.51,173,130.8,223.67c-.48.48-.93,1-1.45,1.45a65.7,65.7,0,0,0-18.85,26.25,9.45,9.45,0,0,1-2,3c-3.78,3.88-7.57,7.73-11.49,11.47-.76.72-2.4,1.45-3.07,1.11a4.25,4.25,0,0,1-1.67-3.06C92,261.15,92.15,258.41,92.15,255.38Zm46.58-46.88,62.83-63.19-46.25-46q-31.38,31.39-63,63Zm66.9-66.76c7.3-7.25,14.68-14.52,22-21.86A45.47,45.47,0,0,1,241.47,110c2-.89,4-1.91,5.44-2.63L193.05,53.12c-.71,1.41-1.52,2.88-2.19,4.41a47.37,47.37,0,0,1-11,15.53c-6.78,6.48-13.3,13.22-19.92,19.86-.57.57-1.1,1.18-1.7,1.83ZM87.54,165.3c-5.17,5.18-10.62,10.38-15.76,15.87-5.34,5.69-12.26,8.77-18.81,11.92l54.18,54.09c.55-1.14,1.26-2.48,1.86-3.88A48.16,48.16,0,0,1,120.48,227c4.54-4.29,8.89-8.78,13.31-13.2.46-.45.86-1,1.05-1.18ZM49.7,215h6c5.86,0,5.86,0,5.86,5.73v6.13c3,0,5.74,0,8.46,0s3.34.61,3.37,3.4,0,5.42,0,8.41c3.11,0,5.91-.05,8.7,0,2.46.05,3.09.72,3.12,3.19,0,2.79,0,5.59,0,8.63,3.09,0,5.9,0,8.7,0,2.41.05,3.11.78,3.16,3.17,0,1.55,0,3.1,0,4.38l6.28-6.1-54.81-54.9-6.07,6.09h3.22c3.54,0,4,.49,4,4.13C49.71,209.8,49.7,212.29,49.7,215ZM251.62,103.58l6.47-6.44c-1.28,0-2.62,0-4,0-3.09,0-3.72-.65-3.74-3.77,0-2.64,0-5.27,0-8.1-3.08,0-5.81,0-8.54,0-2.56,0-3.23-.69-3.28-3.27,0-2.29-.06-4.58,0-6.86,0-1.29-.45-1.76-1.74-1.71-2,.08-4,0-5.94,0-3.71,0-4.11-.4-4.12-4,0-2.49,0-5,0-7.78-3,0-5.71,0-8.43,0S215,61,214.94,58.25s0-5.45,0-8.45c-3,0-5.71,0-8.44,0s-3.39-.72-3.42-3.38c0-1.47,0-2.95,0-4.18l-6.47,6.32Z"/><path class="cls-1" d="M141.77,155.81c-3.12-3.05-6.13-6-9.09-8.91-2.33-2.33-1.84-4.19,1.32-5q14.87-4,29.75-7.94c1.42-.38,2.77-.54,3.63.92s.05,2.58-1,3.61q-5.2,5.15-10.35,10.33c-.52.53-1,1.09-1.66,1.78,3,3,5.92,5.87,8.81,8.78,2.51,2.53,2,4.41-1.39,5.33q-14.66,3.93-29.31,7.81c-1.44.38-2.92.72-3.83-.92s.13-2.69,1.2-3.75c3.41-3.38,6.79-6.78,10.18-10.18C140.57,157.1,141.07,156.55,141.77,155.81Zm-3.39-10.14c2.79,2.76,5.23,5.15,7.65,7.57,2.23,2.22,2.26,3.11.05,5.27s-4.39,4.15-6.59,6.23l.43.63,17.42-4.58a5,5,0,0,0-.4-.7q-3.21-3.24-6.44-6.47c-2.91-2.92-2.91-3.44.08-6.41,2-2,3.95-3.86,5.92-5.79l-.33-.43Z"/><path class="cls-1" d="M198.6,74.72a17.19,17.19,0,0,1,2.27,1.59Q212.45,87.83,224,99.39c1.25,1.24,1.76,2.62.35,4s-2.63.7-3.8-.46c-7.74-7.76-15.52-15.49-23.19-23.31a3.94,3.94,0,0,1-.85-3C196.61,75.88,197.8,75.38,198.6,74.72Z"/><path class="cls-1" d="M79,194.22a14.55,14.55,0,0,1,2.28,1.49Q92.9,207.32,104.52,219c1.17,1.17,1.74,2.45.44,3.79s-2.59,1-3.8-.21c-7.81-7.81-15.65-15.6-23.38-23.49a4.06,4.06,0,0,1-.76-3C77.11,195.37,78.21,194.87,79,194.22Z"/></svg>